<?xml version="1.0" encoding="UTF-8"?>
<!DOCTYPE svg PUBLIC "-//W3C//DTD SVG 1.1//EN" "http://www.w3.org/Graphics/SVG/1.1/DTD/svg11.dtd">
<svg xmlns="http://www.w3.org/2000/svg" version="1.1" width="512px" height="512px" style="shape-rendering:geometricPrecision; text-rendering:geometricPrecision; image-rendering:optimizeQuality; fill-rule:evenodd; clip-rule:evenodd" xmlns:xlink="http://www.w3.org/1999/xlink">
<g><path style="opacity:0.997" fill="#fea625" d="M 232.5,-0.5 C 247.833,-0.5 263.167,-0.5 278.5,-0.5C 368.144,10.3879 435.644,54.7213 481,132.5C 497.695,163.971 507.861,197.304 511.5,232.5C 511.5,247.833 511.5,263.167 511.5,278.5C 500.612,368.144 456.279,435.644 378.5,481C 347.029,497.695 313.696,507.861 278.5,511.5C 263.167,511.5 247.833,511.5 232.5,511.5C 142.856,500.612 75.3562,456.279 30,378.5C 13.3053,347.029 3.1386,313.696 -0.5,278.5C -0.5,263.167 -0.5,247.833 -0.5,232.5C 10.3875,142.857 54.7208,75.3573 132.5,30C 163.971,13.3053 197.304,3.1386 232.5,-0.5 Z"/></g>
<g><path style="opacity:1" fill="#060908" d="M 212.5,136.5 C 240.835,136.333 269.169,136.5 297.5,137C 301.333,138.167 303.833,140.667 305,144.5C 307.308,156.823 309.474,169.157 311.5,181.5C 339.502,181.333 367.502,181.5 395.5,182C 400,183.833 403.167,187 405,191.5C 405.667,249.167 405.667,306.833 405,364.5C 403.833,369.667 400.667,372.833 395.5,374C 301.833,374.667 208.167,374.667 114.5,374C 109.901,372.402 107.068,369.235 106,364.5C 105.333,306.5 105.333,248.5 106,190.5C 108.222,186.612 111.388,183.779 115.5,182C 122.492,181.5 129.492,181.334 136.5,181.5C 133.042,165.672 139.209,158.672 155,160.5C 170.92,158.59 177.42,165.59 174.5,181.5C 182.833,181.5 191.167,181.5 199.5,181.5C 201.345,168.786 203.511,156.119 206,143.5C 207.694,140.642 209.861,138.309 212.5,136.5 Z"/></g>
<g><path style="opacity:1" fill="#1186f8" d="M 304.5,179.5 C 288.514,180.833 272.181,181.499 255.5,181.5C 238.819,181.499 222.486,180.833 206.5,179.5C 208.285,168.507 210.118,157.507 212,146.5C 212.465,145.069 213.299,143.903 214.5,143C 241.833,142.333 269.167,142.333 296.5,143C 297.701,143.903 298.535,145.069 299,146.5C 301.288,157.437 303.121,168.437 304.5,179.5 Z"/></g>
<g><path style="opacity:1" fill="#0a0e11" d="M 230.5,149.5 C 247.17,149.333 263.837,149.5 280.5,150C 282.049,151.214 283.215,152.714 284,154.5C 285.299,160.119 285.632,165.786 285,171.5C 284.167,173 283,174.167 281.5,175C 264.167,175.667 246.833,175.667 229.5,175C 226.365,173.734 224.698,171.401 224.5,168C 225.279,163.49 226.113,158.99 227,154.5C 227.997,152.677 229.164,151.01 230.5,149.5 Z"/></g>
<g><path style="opacity:1" fill="#93f2dc" d="M 233.5,155.5 C 248.182,155.167 262.848,155.501 277.5,156.5C 278.811,160.389 279.478,164.389 279.5,168.5C 263.5,168.5 247.5,168.5 231.5,168.5C 231.844,164.106 232.51,159.772 233.5,155.5 Z"/></g>
<g><path style="opacity:1" fill="#1286f9" d="M 145.5,166.5 C 152.175,166.334 158.842,166.5 165.5,167C 166,167.5 166.5,168 167,168.5C 167.499,172.821 167.666,177.154 167.5,181.5C 159.5,181.5 151.5,181.5 143.5,181.5C 143.334,177.154 143.501,172.821 144,168.5C 144.717,167.956 145.217,167.289 145.5,166.5 Z"/></g>
<g><path style="opacity:1" fill="#2c302a" d="M 206.5,179.5 C 222.486,180.833 238.819,181.499 255.5,181.5C 272.181,181.499 288.514,180.833 304.5,179.5C 305.404,180.209 305.737,181.209 305.5,182.5C 272.167,182.5 238.833,182.5 205.5,182.5C 205.263,181.209 205.596,180.209 206.5,179.5 Z"/></g>
<g><path style="opacity:1" fill="#07bff7" d="M 115.5,188.5 C 208.834,188.333 302.167,188.5 395.5,189C 396.667,190.167 397.833,191.333 399,192.5C 399.5,202.828 399.666,213.161 399.5,223.5C 366.498,223.667 333.498,223.5 300.5,223C 272.277,202.204 243.277,201.204 213.5,220C 212.5,221 211.5,222 210.5,223C 177.502,223.5 144.502,223.667 111.5,223.5C 111.334,213.161 111.5,202.828 112,192.5C 113.376,191.295 114.542,189.962 115.5,188.5 Z"/></g>
<g><path style="opacity:1" fill="#090e0d" d="M 138.5,194.5 C 146.611,194.065 154.611,194.565 162.5,196C 163.333,196.833 164.167,197.667 165,198.5C 165.896,203.949 165.563,209.282 164,214.5C 163.097,215.701 161.931,216.535 160.5,217C 152.728,217.931 145.061,217.598 137.5,216C 135.022,212.999 134.022,209.499 134.5,205.5C 133.729,200.959 135.062,197.292 138.5,194.5 Z"/></g>
<g><path style="opacity:1" fill="#060a09" d="M 329.5,194.5 C 343.504,194.333 357.504,194.5 371.5,195C 372.931,195.465 374.097,196.299 375,197.5C 375.667,203.167 375.667,208.833 375,214.5C 374.097,215.701 372.931,216.535 371.5,217C 357.5,217.667 343.5,217.667 329.5,217C 326.09,213.954 324.756,210.121 325.5,205.5C 324.716,200.869 326.049,197.202 329.5,194.5 Z"/></g>
<g><path style="opacity:1" fill="#768963" d="M 141.5,201.5 C 147.31,200.51 153.31,200.177 159.5,200.5C 159.5,204.167 159.5,207.833 159.5,211.5C 153.31,211.823 147.31,211.49 141.5,210.5C 147.167,210.5 152.833,210.5 158.5,210.5C 158.5,207.5 158.5,204.5 158.5,201.5C 152.833,201.5 147.167,201.5 141.5,201.5 Z"/></g>
<g><path style="opacity:1" fill="#748862" d="M 369.5,201.5 C 357.167,201.5 344.833,201.5 332.5,201.5C 332.5,204.5 332.5,207.5 332.5,210.5C 344.833,210.5 357.167,210.5 369.5,210.5C 357.011,211.495 344.344,211.829 331.5,211.5C 331.5,207.833 331.5,204.167 331.5,200.5C 344.344,200.171 357.011,200.505 369.5,201.5 Z"/></g>
<g><path style="opacity:1" fill="#93f9e4" d="M 141.5,201.5 C 147.167,201.5 152.833,201.5 158.5,201.5C 158.5,204.5 158.5,207.5 158.5,210.5C 152.833,210.5 147.167,210.5 141.5,210.5C 141.5,207.5 141.5,204.5 141.5,201.5 Z"/></g>
<g><path style="opacity:1" fill="#93f9e4" d="M 369.5,201.5 C 369.5,204.5 369.5,207.5 369.5,210.5C 357.167,210.5 344.833,210.5 332.5,210.5C 332.5,207.5 332.5,204.5 332.5,201.5C 344.833,201.5 357.167,201.5 369.5,201.5 Z"/></g>
<g><path style="opacity:1" fill="#0686fc" d="M 242.5,213.5 C 281.034,209.922 306.534,226.255 319,262.5C 324.456,294.746 313.289,319.246 285.5,336C 252.461,349.7 224.628,342.866 202,315.5C 182.475,281.567 187.308,251.734 216.5,226C 224.612,220.442 233.279,216.275 242.5,213.5 Z"/></g>
<g><path style="opacity:1" fill="#5a6652" d="M 201.5,231.5 C 172.005,230.502 142.338,230.169 112.5,230.5C 112.5,234.833 112.5,239.167 112.5,243.5C 111.514,239.03 111.181,234.363 111.5,229.5C 141.841,229.167 172.174,229.5 202.5,230.5C 202.376,231.107 202.043,231.44 201.5,231.5 Z"/></g>
<g><path style="opacity:1" fill="#586653" d="M 398.5,243.5 C 398.5,239.167 398.5,234.833 398.5,230.5C 368.662,230.169 338.995,230.502 309.5,231.5C 308.957,231.44 308.624,231.107 308.5,230.5C 338.826,229.5 369.159,229.167 399.5,229.5C 399.819,234.363 399.486,239.03 398.5,243.5 Z"/></g>
<g><path style="opacity:1" fill="#4697b2" d="M 201.5,231.5 C 198.121,234.567 195.454,238.234 193.5,242.5C 166.508,243.5 139.508,243.833 112.5,243.5C 112.5,239.167 112.5,234.833 112.5,230.5C 142.338,230.169 172.005,230.502 201.5,231.5 Z"/></g>
<g><path style="opacity:1" fill="#4697b2" d="M 309.5,231.5 C 338.995,230.502 368.662,230.169 398.5,230.5C 398.5,234.833 398.5,239.167 398.5,243.5C 371.492,243.833 344.492,243.5 317.5,242.5C 315.546,238.234 312.879,234.567 309.5,231.5 Z"/></g>
<g><path style="opacity:1" fill="#0b0c0c" d="M 244.5,232.5 C 268.691,229.265 286.524,238.265 298,259.5C 306.966,289.964 296.799,311.13 267.5,323C 236.851,327.356 217.685,314.523 210,284.5C 208.783,258.573 220.283,241.24 244.5,232.5 Z"/></g>
<g><path style="opacity:1" fill="#93f3dd" d="M 248.5,238.5 C 273.297,237.3 288.797,248.633 295,272.5C 295.993,296.026 285.16,310.859 262.5,317C 245.339,319.5 231.839,313.667 222,299.5C 211.038,278.185 214.871,260.018 233.5,245C 238.367,242.226 243.367,240.059 248.5,238.5 Z"/></g>
<g><path style="opacity:1" fill="#3e766e" d="M 189.5,250.5 C 163.833,250.5 138.167,250.5 112.5,250.5C 112.5,267.5 112.5,284.5 112.5,301.5C 137.5,301.5 162.5,301.5 187.5,301.5C 162.339,302.498 137.005,302.831 111.5,302.5C 111.5,284.833 111.5,267.167 111.5,249.5C 137.672,249.169 163.672,249.502 189.5,250.5 Z"/></g>
<g><path style="opacity:1" fill="#3c746c" d="M 321.5,250.5 C 347.328,249.502 373.328,249.169 399.5,249.5C 399.5,267.167 399.5,284.833 399.5,302.5C 373.995,302.831 348.661,302.498 323.5,301.5C 348.5,301.5 373.5,301.5 398.5,301.5C 398.5,284.5 398.5,267.5 398.5,250.5C 372.833,250.5 347.167,250.5 321.5,250.5 Z"/></g>
<g><path style="opacity:1" fill="#02bff9" d="M 189.5,250.5 C 183.604,267.225 182.937,284.225 187.5,301.5C 162.5,301.5 137.5,301.5 112.5,301.5C 112.5,284.5 112.5,267.5 112.5,250.5C 138.167,250.5 163.833,250.5 189.5,250.5 Z"/></g>
<g><path style="opacity:1" fill="#02bff9" d="M 321.5,250.5 C 347.167,250.5 372.833,250.5 398.5,250.5C 398.5,267.5 398.5,284.5 398.5,301.5C 373.5,301.5 348.5,301.5 323.5,301.5C 326.266,289.991 327.099,278.324 326,266.5C 325.315,260.891 323.815,255.558 321.5,250.5 Z"/></g>
<g><path style="opacity:1" fill="#0d0a06" d="M 240.5,252.5 C 246.501,252 251.501,254 255.5,258.5C 262.086,251.536 269.419,250.703 277.5,256C 283.425,261.469 284.925,267.969 282,275.5C 280.527,279.779 278.527,283.779 276,287.5C 269.629,295.037 262.795,302.037 255.5,308.5C 246.458,300.956 238.625,292.29 232,282.5C 226.634,274.643 226.3,266.643 231,258.5C 233.843,255.837 237.009,253.837 240.5,252.5 Z"/></g>
<g><path style="opacity:1" fill="#f9481d" d="M 239.5,259.5 C 242.187,259.336 244.854,259.503 247.5,260C 250.06,262.971 252.727,265.804 255.5,268.5C 258.264,265.846 260.931,263.012 263.5,260C 271.199,258.011 275.866,260.844 277.5,268.5C 273.652,281.519 266.319,292.185 255.5,300.5C 247.705,293.539 241.205,285.539 236,276.5C 234.566,272.594 234.233,268.594 235,264.5C 236.025,262.313 237.525,260.646 239.5,259.5 Z"/></g>
<g><path style="opacity:1" fill="#4697b2" d="M 112.5,308.5 C 138.502,308.333 164.502,308.5 190.5,309C 192.97,312.778 195.303,316.611 197.5,320.5C 169.338,321.498 141.005,321.831 112.5,321.5C 112.5,317.167 112.5,312.833 112.5,308.5 Z"/></g>
<g><path style="opacity:1" fill="#4697b2" d="M 398.5,308.5 C 398.5,312.833 398.5,317.167 398.5,321.5C 369.995,321.831 341.662,321.498 313.5,320.5C 315.742,317.021 317.742,313.354 319.5,309.5C 345.825,308.5 372.158,308.167 398.5,308.5 Z"/></g>
<g><path style="opacity:1" fill="#596754" d="M 112.5,308.5 C 112.5,312.833 112.5,317.167 112.5,321.5C 141.005,321.831 169.338,321.498 197.5,320.5C 198.043,320.56 198.376,320.893 198.5,321.5C 169.508,322.5 140.508,322.833 111.5,322.5C 111.181,317.637 111.514,312.97 112.5,308.5 Z"/></g>
<g><path style="opacity:1" fill="#586552" d="M 398.5,308.5 C 399.486,312.97 399.819,317.637 399.5,322.5C 370.492,322.833 341.492,322.5 312.5,321.5C 312.624,320.893 312.957,320.56 313.5,320.5C 341.662,321.498 369.995,321.831 398.5,321.5C 398.5,317.167 398.5,312.833 398.5,308.5 Z"/></g>
<g><path style="opacity:1" fill="#0b86fc" d="M 112.5,328.5 C 127.167,328.5 141.833,328.5 156.5,328.5C 156.5,341.833 156.5,355.167 156.5,368.5C 143.163,368.667 129.829,368.5 116.5,368C 115.333,366.833 114.167,365.667 113,364.5C 112.5,352.505 112.333,340.505 112.5,328.5 Z"/></g>
<g><path style="opacity:1" fill="#0386fd" d="M 354.5,328.5 C 369.167,328.5 383.833,328.5 398.5,328.5C 398.667,340.505 398.5,352.505 398,364.5C 397.626,365.416 397.126,366.25 396.5,367C 382.598,368.465 368.598,368.965 354.5,368.5C 354.5,355.167 354.5,341.833 354.5,328.5 Z"/></g>
<g><path style="opacity:1" fill="#4fa49f" d="M 163.5,328.5 C 163.5,341.5 163.5,354.5 163.5,367.5C 224.833,367.5 286.167,367.5 347.5,367.5C 347.5,354.5 347.5,341.5 347.5,328.5C 348.496,341.656 348.829,354.99 348.5,368.5C 286.5,368.5 224.5,368.5 162.5,368.5C 162.171,354.99 162.504,341.656 163.5,328.5 Z"/></g>
<g><path style="opacity:1" fill="#02bff9" d="M 163.5,328.5 C 177.504,328.333 191.504,328.5 205.5,329C 228.359,349.701 254.359,354.701 283.5,344C 291.656,340.173 298.989,335.173 305.5,329C 319.496,328.5 333.496,328.333 347.5,328.5C 347.5,341.5 347.5,354.5 347.5,367.5C 286.167,367.5 224.833,367.5 163.5,367.5C 163.5,354.5 163.5,341.5 163.5,328.5 Z"/></g>
</svg>
